<svg width="37" height="37" viewBox="0 0 37 37" fill="none" xmlns="http://www.w3.org/2000/svg">
<path fill-rule="evenodd" clip-rule="evenodd" d="M7.8027 3.28235C6.4975 4.19499 5.31725 5.27402 4.29269 6.48868C8.47953 6.09997 13.7988 6.73468 19.9743 9.8225C26.569 13.1198 31.8794 13.2312 35.5751 12.5184C35.2398 11.5031 34.8176 10.5273 34.3175 9.59962C30.0869 10.0458 24.6632 9.4552 18.3424 6.29489C14.3286 4.288 10.7905 3.46129 7.8027 3.28235ZM31.8462 6.08202C28.5052 2.34918 23.65 0 18.2461 0C16.6591 0 15.1193 0.202629 13.6514 0.583401C15.6395 1.12586 17.7515 1.91948 19.9743 3.03092C24.6021 5.34477 28.5975 6.08978 31.8462 6.08202ZM36.3653 16.0822C31.9005 16.9638 25.735 16.7828 18.3424 13.0865C11.4312 9.63082 5.93038 9.67434 2.22046 10.4988C2.02897 10.5413 1.84198 10.586 1.65951 10.6325C1.17379 11.6889 0.786074 12.7997 0.507882 13.9532C0.805006 13.8739 1.11204 13.7984 1.42882 13.728C5.92959 12.7278 12.2888 12.7713 19.9743 16.6141C26.8857 20.0697 32.3864 20.0262 36.0964 19.2017C36.2235 19.1735 36.3488 19.1443 36.4719 19.1142C36.4854 18.8266 36.4922 18.5371 36.4922 18.2461C36.4922 17.514 36.4491 16.7919 36.3653 16.0822ZM35.8762 22.9648C31.4547 23.7378 25.4688 23.4411 18.3424 19.878C11.4312 16.4224 5.93038 16.4659 2.22046 17.2904C1.39697 17.4733 0.656166 17.6962 0.00267306 17.9314C0.000891323 18.0361 0 18.141 0 18.2461C0 28.3231 8.16905 36.4922 18.2461 36.4922C26.6914 36.4922 33.7966 30.7546 35.8762 22.9648Z" fill="white"/>
</svg>
